<?xml version="1.0" encoding="utf-8"?>
<!-- Generator: Adobe Illustrator 18.1.1, SVG Export Plug-In . SVG Version: 6.00 Build 0)  -->
<svg version="1.1" id="Layer_1" xmlns="http://www.w3.org/2000/svg" xmlns:xlink="http://www.w3.org/1999/xlink" x="0px" y="0px"
	 viewBox="0 0 150 60" enable-background="new 0 0 150 60" xml:space="preserve">
<rect fill="#FFFFFF" width="150" height="60"/>
<rect y="48" fill="#6BD2E1" width="150" height="12"/>
<rect y="0" fill="#6BD2E1" width="150" height="12"/>
<g>
	<g>
		<path fill="#E70805" d="M105.4,26.1c0,0-3.2,0.4-5.3,0.6c-0.2,0-0.4,0.1-0.4,0.3c-0.1,0.2,0,0.4,0.1,0.5c1.6,1.4,3.9,3.6,3.9,3.6
			c0,0-0.6,3.1-1.1,5.2c0,0.2,0,0.4,0.2,0.5c0.2,0.1,0.4,0.1,0.5,0c1.8-1,4.6-2.6,4.6-2.6s2.8,1.6,4.6,2.6c0.2,0.1,0.4,0.1,0.5,0
			c0.2-0.1,0.2-0.3,0.2-0.5c-0.4-2.1-1.1-5.2-1.1-5.2s2.4-2.1,3.9-3.6c0.1-0.1,0.2-0.3,0.1-0.5c-0.1-0.2-0.2-0.3-0.4-0.3
			c-2.1-0.2-5.3-0.6-5.3-0.6s-1.3-2.9-2.2-4.8c-0.1-0.2-0.3-0.3-0.5-0.3c-0.2,0-0.4,0.1-0.5,0.3C106.7,23.2,105.4,26.1,105.4,26.1z"
			/>
	</g>
	<g>
		<path fill="#E70805" d="M83.4,26.1c0,0-3.2,0.4-5.3,0.6c-0.2,0-0.4,0.1-0.4,0.3c-0.1,0.2,0,0.4,0.1,0.5c1.6,1.4,3.9,3.6,3.9,3.6
			c0,0-0.6,3.1-1.1,5.2c0,0.2,0,0.4,0.2,0.5c0.2,0.1,0.4,0.1,0.5,0c1.8-1,4.6-2.6,4.6-2.6s2.8,1.6,4.6,2.6c0.2,0.1,0.4,0.1,0.5,0
			c0.2-0.1,0.2-0.3,0.2-0.5c-0.4-2.1-1.1-5.2-1.1-5.2s2.4-2.1,3.9-3.6c0.1-0.1,0.2-0.3,0.1-0.5c-0.1-0.2-0.2-0.3-0.4-0.3
			c-2.1-0.2-5.3-0.6-5.3-0.6s-1.3-2.9-2.2-4.8C86.4,21.1,86.2,21,86,21c-0.2,0-0.4,0.1-0.5,0.3C84.7,23.2,83.4,26.1,83.4,26.1z"/>
	</g>
	<g>
		<path fill="#E70805" d="M61.4,26.1c0,0-3.2,0.4-5.3,0.6c-0.2,0-0.4,0.1-0.4,0.3s0,0.4,0.1,0.5c1.6,1.4,3.9,3.6,3.9,3.6
			c0,0-0.6,3.1-1.1,5.2c0,0.2,0,0.4,0.2,0.5c0.2,0.1,0.4,0.1,0.5,0c1.8-1,4.6-2.6,4.6-2.6s2.8,1.6,4.6,2.6c0.2,0.1,0.4,0.1,0.5,0
			c0.2-0.1,0.2-0.3,0.2-0.5c-0.4-2.1-1.1-5.2-1.1-5.2s2.4-2.1,3.9-3.6c0.1-0.1,0.2-0.3,0.1-0.5c-0.1-0.2-0.2-0.3-0.4-0.3
			c-2.1-0.2-5.3-0.6-5.3-0.6s-1.3-2.9-2.2-4.8C64.4,21.1,64.2,21,64,21c-0.2,0-0.4,0.1-0.5,0.3C62.7,23.2,61.4,26.1,61.4,26.1z"/>
	</g>
	<g>
		<path fill="#E70805" d="M39.4,26.1c0,0-3.2,0.4-5.3,0.6c-0.2,0-0.4,0.1-0.4,0.3s0,0.4,0.1,0.5c1.6,1.4,3.9,3.6,3.9,3.6
			c0,0-0.6,3.1-1.1,5.2c0,0.2,0,0.4,0.2,0.5c0.2,0.1,0.4,0.1,0.5,0c1.8-1,4.6-2.6,4.6-2.6s2.8,1.6,4.6,2.6c0.2,0.1,0.4,0.1,0.5,0
			c0.2-0.1,0.2-0.3,0.2-0.5c-0.4-2.1-1.1-5.2-1.1-5.2s2.4-2.1,3.9-3.6c0.1-0.1,0.2-0.3,0.1-0.5c-0.1-0.2-0.2-0.3-0.4-0.3
			c-2.1-0.2-5.3-0.6-5.3-0.6s-1.3-2.9-2.2-4.8C42.4,21.1,42.2,21,42,21c-0.2,0-0.4,0.1-0.5,0.3C40.7,23.2,39.4,26.1,39.4,26.1z"/>
	</g>
</g>
</svg>
